<svg width="150" viewBox="0 0 204 139" fill="black" xmlns="http://www.w3.org/2000/svg">
  <path d="M19.0178 135.661C19.0215 136.117 18.9347 136.57 18.7624 136.992C18.6049 137.383 18.3714 137.739 18.0753 138.04C17.7757 138.337 17.4192 138.571 17.0271 138.727C16.181 139.077 15.2305 139.077 14.3845 138.727C13.9924 138.571 13.6359 138.337 13.3362 138.04C13.0401 137.739 12.8066 137.383 12.6492 136.992C12.3136 136.143 12.3136 135.198 12.6492 134.349C12.8036 133.949 13.0401 133.585 13.3436 133.282C13.647 132.978 14.0106 132.742 14.4109 132.587C15.2569 132.237 16.2075 132.237 17.0535 132.587C17.4538 132.742 17.8174 132.978 18.1208 133.282C18.4242 133.585 18.6608 133.949 18.8152 134.349C18.9876 134.771 19.0744 135.223 19.0707 135.679L19.0178 135.661ZM18.3748 135.679C18.3765 135.324 18.3138 134.972 18.1898 134.64C18.0768 134.316 17.9034 134.017 17.6789 133.759C17.4503 133.505 17.1713 133.301 16.8597 133.16C16.5181 133.011 16.1489 132.936 15.7762 132.94C15.4008 132.937 15.0289 133.012 14.684 133.16C14.3762 133.303 14.1006 133.507 13.8736 133.759C13.6464 134.017 13.4701 134.316 13.3539 134.64C13.1189 135.313 13.1189 136.045 13.3539 136.719C13.4659 137.044 13.6427 137.344 13.8736 137.599C14.1006 137.852 14.3762 138.055 14.684 138.198C15.0276 138.351 15.4004 138.426 15.7762 138.419C16.1493 138.427 16.5194 138.351 16.8597 138.198C17.1713 138.058 17.4503 137.854 17.6789 137.599C17.907 137.343 18.0808 137.044 18.1898 136.719C18.3138 136.386 18.3765 136.034 18.3748 135.679"></path>
  <path d="M28.1782 137.82C28.0661 137.988 27.9329 138.142 27.7818 138.278C27.6187 138.423 27.4382 138.547 27.2445 138.648C27.0344 138.755 26.8127 138.837 26.5838 138.894C26.3383 138.951 26.0872 138.981 25.8351 138.982C25.3879 138.984 24.9447 138.898 24.5314 138.727C24.1392 138.576 23.7845 138.341 23.492 138.04C23.1902 137.742 22.9533 137.385 22.7961 136.992C22.4716 136.141 22.4716 135.2 22.7961 134.349C22.9543 133.951 23.1921 133.589 23.4951 133.286C23.798 132.983 24.1597 132.745 24.5578 132.587C24.9712 132.417 25.4143 132.33 25.8615 132.332C26.2667 132.333 26.6677 132.414 27.0419 132.57C27.4446 132.725 27.7955 132.991 28.0549 133.336L27.4911 133.75C27.4125 133.64 27.3208 133.539 27.218 133.45C27.1031 133.341 26.9725 133.249 26.8305 133.177C26.6799 133.104 26.5238 133.042 26.3636 132.992C26.2 132.947 26.0312 132.924 25.8615 132.922C25.5041 132.914 25.1491 132.982 24.8207 133.124C24.4923 133.265 24.1984 133.476 23.9588 133.741C23.7343 134 23.5609 134.299 23.4479 134.622C23.213 135.295 23.213 136.028 23.4479 136.701C23.557 137.026 23.7308 137.326 23.9588 137.582C24.1984 137.847 24.4923 138.058 24.8207 138.199C25.1491 138.341 25.5041 138.409 25.8615 138.401C26.0286 138.414 26.1965 138.414 26.3636 138.401C26.5268 138.367 26.6862 138.317 26.8393 138.251C27.003 138.178 27.1544 138.08 27.2885 137.961C27.4378 137.826 27.5682 137.672 27.6761 137.502L28.1782 137.82Z"></path>
  <path d="M32.5756 138.234H35.9582V138.824H31.9326V132.499H35.8525V133.089H32.5756V135.239H35.6411V135.829H32.5756V138.234Z"></path>
  <path d="M39.8318 138.859H39.0742L41.8225 132.543H42.4479L45.1962 138.859H44.4475L43.7516 137.194H40.5276L39.8318 138.859ZM40.7126 136.569H43.4521L42.0868 133.257L40.7126 136.569Z"></path>
  <path d="M53.267 137.855H53.2846V132.499H53.9277V138.824H53.1261L49.356 133.415H49.3383V138.824H48.6953V132.499H49.4969L53.267 137.855Z"></path>
  <path d="M64.1088 138.824H63.4746V132.499H67.28V133.089H64.1088V135.239H67.0597V135.829H64.1088V138.824Z"></path>
  <path d="M71.7465 138.859H71.1123V132.508H73.0502C73.5898 132.475 74.1252 132.621 74.5741 132.922C74.7619 133.073 74.9104 133.267 75.007 133.488C75.1036 133.709 75.1455 133.95 75.1291 134.19C75.1409 134.399 75.1103 134.609 75.0392 134.805C74.968 135.002 74.8578 135.182 74.7151 135.336C74.397 135.656 73.9682 135.842 73.5171 135.855L75.3405 138.859H74.5565L72.7948 135.926H71.7201L71.7465 138.859ZM71.7465 135.336H72.8917C73.1388 135.339 73.3851 135.306 73.6228 135.239C73.795 135.195 73.9568 135.117 74.0984 135.01C74.2117 134.915 74.2996 134.794 74.3539 134.657C74.4079 134.52 74.4348 134.373 74.4332 134.226C74.4341 134.081 74.4072 133.937 74.3539 133.803C74.2996 133.666 74.2117 133.545 74.0984 133.45C73.9595 133.337 73.797 133.256 73.6228 133.213C73.3846 133.148 73.1383 133.118 72.8917 133.125H71.7465V135.336Z"></path>
  <path d="M85.2327 135.661C85.2364 136.117 85.1496 136.57 84.9772 136.992C84.8198 137.383 84.5863 137.739 84.2901 138.04C83.9905 138.337 83.634 138.571 83.2419 138.727C82.3959 139.077 81.4453 139.077 80.5993 138.727C80.2072 138.571 79.8507 138.337 79.5511 138.04C79.255 137.739 79.0214 137.383 78.864 136.992C78.5284 136.143 78.5284 135.198 78.864 134.349C79.0184 133.949 79.255 133.585 79.5584 133.282C79.8618 132.978 80.2254 132.742 80.6257 132.587C81.4718 132.237 82.4223 132.237 83.2683 132.587C83.6687 132.742 84.0322 132.978 84.3357 133.282C84.6391 133.585 84.8756 133.949 85.0301 134.349C85.2024 134.771 85.2892 135.223 85.2855 135.679L85.2327 135.661ZM84.5896 135.679C84.5913 135.324 84.5287 134.972 84.4047 134.64C84.2917 134.316 84.1183 134.017 83.8938 133.759C83.6652 133.505 83.3862 133.301 83.0745 133.16C82.733 133.011 82.3637 132.936 81.9911 132.94C81.6157 132.937 81.2437 133.012 80.8988 133.16C80.5911 133.303 80.3154 133.507 80.0884 133.759C79.8612 134.017 79.6849 134.316 79.5687 134.64C79.3337 135.313 79.3337 136.045 79.5687 136.719C79.6808 137.044 79.8576 137.344 80.0884 137.599C80.3154 137.852 80.5911 138.055 80.8988 138.198C81.2424 138.351 81.6153 138.426 81.9911 138.419C82.3641 138.427 82.7342 138.351 83.0745 138.198C83.3862 138.058 83.6652 137.854 83.8938 137.599C84.1218 137.343 84.2956 137.044 84.4047 136.719C84.5287 136.386 84.5913 136.034 84.5896 135.679Z"></path>
  <path d="M93.7592 137.855H93.7768V132.499H94.4198V138.824H93.6183L89.8481 133.415H89.8305V138.824H89.1875V132.499H89.9979L93.7592 137.855Z"></path>
  <path d="M100.833 138.824H100.19V133.089H98.0762V132.499H102.947V133.089H100.833V138.824Z"></path>
  <path d="M112.407 138.859H111.764V132.508H113.71C114.25 132.477 114.785 132.622 115.234 132.922C115.422 133.073 115.571 133.267 115.667 133.488C115.764 133.709 115.806 133.95 115.789 134.19C115.8 134.6 115.651 134.998 115.375 135.3C115.055 135.623 114.623 135.809 114.168 135.82L115.992 138.824H115.208L113.446 135.89H112.38L112.407 138.859ZM112.407 135.336H113.552C113.796 135.339 114.039 135.306 114.274 135.239C114.448 135.199 114.61 135.12 114.75 135.01C114.865 134.915 114.955 134.794 115.014 134.657C115.068 134.52 115.095 134.373 115.093 134.226C115.094 134.081 115.067 133.937 115.014 133.803C114.955 133.666 114.865 133.545 114.75 133.45C114.613 133.334 114.45 133.252 114.274 133.213C114.039 133.148 113.796 133.118 113.552 133.125H112.407V135.336Z"></path>
  <path d="M120.372 138.234H123.754V138.824H119.729V132.499H123.648V133.089H120.372V135.239H123.437V135.829H120.372V138.234Z"></path>
  <path d="M130.684 133.574C130.551 133.373 130.369 133.211 130.154 133.103C129.939 132.995 129.7 132.945 129.46 132.957C129.293 132.959 129.127 132.983 128.967 133.028C128.813 133.073 128.668 133.142 128.535 133.23C128.398 133.331 128.287 133.464 128.214 133.618C128.14 133.772 128.105 133.941 128.112 134.111C128.106 134.232 128.124 134.354 128.167 134.467C128.209 134.581 128.274 134.685 128.359 134.772C128.53 134.94 128.734 135.072 128.958 135.159C129.209 135.27 129.468 135.362 129.733 135.432C130.007 135.506 130.271 135.616 130.517 135.758C130.752 135.89 130.956 136.07 131.116 136.287C131.284 136.549 131.367 136.857 131.354 137.168C131.358 137.438 131.295 137.704 131.169 137.943C131.053 138.165 130.891 138.361 130.693 138.515C130.288 138.831 129.788 139.001 129.275 139C128.897 139.003 128.522 138.928 128.174 138.78C127.822 138.624 127.518 138.378 127.293 138.066L127.883 137.643C128.021 137.876 128.218 138.068 128.456 138.198C128.724 138.348 129.029 138.422 129.337 138.41C129.498 138.409 129.659 138.382 129.812 138.33C130.127 138.239 130.395 138.031 130.561 137.749C130.644 137.598 130.687 137.428 130.684 137.256C130.693 137.064 130.643 136.874 130.543 136.71C130.451 136.564 130.328 136.441 130.182 136.349C130.022 136.242 129.847 136.159 129.663 136.102L129.064 135.899C128.859 135.839 128.659 135.765 128.465 135.679C128.263 135.599 128.078 135.483 127.918 135.336C127.76 135.208 127.633 135.045 127.548 134.86C127.45 134.629 127.402 134.38 127.407 134.129C127.401 133.854 127.462 133.582 127.584 133.336C127.694 133.115 127.854 132.922 128.051 132.772C128.246 132.623 128.467 132.51 128.702 132.437C128.946 132.367 129.198 132.332 129.451 132.332C129.785 132.328 130.117 132.388 130.429 132.508C130.743 132.636 131.021 132.838 131.239 133.098L130.684 133.574Z"></path>
  <path d="M135.98 132.499H135.337V138.815H135.98V132.499Z"></path>
  <path d="M140.252 132.508H142.348C142.75 132.508 143.148 132.574 143.529 132.702C143.92 132.831 144.284 133.031 144.603 133.292C145.116 133.753 145.466 134.367 145.604 135.042C145.742 135.717 145.66 136.419 145.37 137.044C145.185 137.422 144.924 137.758 144.603 138.031C144.284 138.292 143.92 138.492 143.529 138.621C143.149 138.752 142.75 138.82 142.348 138.824H140.252V132.508ZM140.895 138.234H142.146C142.573 138.244 142.999 138.169 143.397 138.013C143.726 137.881 144.026 137.683 144.278 137.432C144.509 137.2 144.686 136.921 144.797 136.613C145.033 136.001 145.033 135.322 144.797 134.71C144.686 134.402 144.509 134.123 144.278 133.891C144.024 133.642 143.725 133.444 143.397 133.31C142.997 133.158 142.573 133.083 142.146 133.089H140.895V138.234Z"></path>
  <path d="M150.292 138.234H153.675V138.824H149.649V132.499H153.569V133.089H150.292V135.239H153.358V135.829H150.292V138.234Z"></path>
  <path d="M162.185 137.855H162.203V132.499H162.846V138.824H162.044L158.274 133.415H158.265V138.824H157.613V132.499H158.424L162.185 137.855Z"></path>
  <path d="M172.438 137.82C172.326 137.988 172.193 138.142 172.042 138.278C171.878 138.423 171.698 138.547 171.504 138.648C171.294 138.755 171.072 138.837 170.844 138.894C170.159 139.054 169.441 138.996 168.791 138.727C168.4 138.574 168.046 138.34 167.752 138.04C167.45 137.742 167.213 137.385 167.056 136.992C166.731 136.141 166.731 135.2 167.056 134.349C167.215 133.956 167.452 133.6 167.752 133.301C168.051 133.007 168.404 132.773 168.791 132.614C169.207 132.442 169.654 132.355 170.104 132.358C170.506 132.361 170.904 132.441 171.275 132.596C171.678 132.752 172.029 133.017 172.288 133.362L171.724 133.776C171.649 133.666 171.56 133.565 171.46 133.477C171.34 133.369 171.207 133.277 171.064 133.204C170.913 133.13 170.757 133.068 170.597 133.019C170.436 132.974 170.27 132.95 170.104 132.948C169.728 132.945 169.356 133.02 169.011 133.169C168.702 133.313 168.424 133.517 168.192 133.768C167.971 134.029 167.798 134.327 167.681 134.648C167.446 135.322 167.446 136.054 167.681 136.727C167.791 137.05 167.965 137.348 168.194 137.601C168.423 137.854 168.701 138.057 169.011 138.198C169.356 138.347 169.728 138.422 170.104 138.419C170.268 138.431 170.433 138.431 170.597 138.419C170.763 138.384 170.925 138.333 171.081 138.269C171.241 138.193 171.389 138.095 171.522 137.978C171.671 137.844 171.802 137.69 171.909 137.52L172.438 137.82Z"></path>
  <path d="M176.832 138.234H180.215V138.824H176.189V132.499H180.109V133.089H176.832V135.239H179.898V135.829H176.832V138.234Z"></path>
  <path d="M187.15 133.574C187.017 133.373 186.834 133.211 186.62 133.103C186.405 132.995 186.166 132.945 185.926 132.957C185.762 132.958 185.599 132.982 185.441 133.028C185.284 133.07 185.135 133.138 185.001 133.23C184.874 133.325 184.771 133.449 184.701 133.591C184.616 133.748 184.574 133.924 184.578 134.102C184.571 134.224 184.59 134.345 184.632 134.458C184.675 134.572 184.74 134.676 184.825 134.763C184.996 134.932 185.2 135.064 185.424 135.151C185.675 135.26 185.934 135.351 186.199 135.424C186.473 135.498 186.737 135.607 186.983 135.75C187.217 135.882 187.422 136.062 187.582 136.278C187.75 136.54 187.833 136.848 187.82 137.159C187.824 137.429 187.761 137.695 187.635 137.934C187.519 138.157 187.356 138.352 187.159 138.507C186.957 138.663 186.731 138.785 186.489 138.868C186.248 138.948 185.995 138.99 185.741 138.991C185.362 138.995 184.987 138.92 184.64 138.771C184.288 138.615 183.984 138.369 183.759 138.057L184.349 137.635C184.486 137.868 184.684 138.059 184.922 138.19C185.19 138.34 185.495 138.413 185.802 138.401C185.964 138.4 186.125 138.374 186.278 138.322C186.593 138.23 186.86 138.022 187.027 137.74C187.11 137.589 187.152 137.419 187.15 137.247C187.158 137.055 187.109 136.865 187.009 136.701C186.917 136.556 186.793 136.432 186.648 136.34C186.488 136.232 186.313 136.148 186.128 136.093L185.529 135.891C185.325 135.83 185.125 135.757 184.93 135.67C184.743 135.595 184.57 135.487 184.419 135.353C184.261 135.225 184.134 135.063 184.049 134.878C183.951 134.647 183.903 134.397 183.909 134.146C183.902 133.872 183.963 133.6 184.085 133.354C184.195 133.133 184.355 132.94 184.552 132.79C184.748 132.642 184.969 132.529 185.203 132.455C185.447 132.385 185.699 132.349 185.952 132.349C186.286 132.346 186.618 132.406 186.93 132.526C187.245 132.651 187.524 132.854 187.74 133.116L187.15 133.574Z"></path>
  <path d="M50.9326 110.918H52.7736L56.209 120.458H56.2442L59.8206 110.918H61.5559L56.9401 122.642H55.4515L50.9326 110.918Z"></path>
  <path d="M69.5192 110.918H70.9638L75.9495 122.642H74.0997L72.9193 119.744H67.3435L66.26 122.642H64.4014L69.5192 110.918ZM72.3732 118.352L70.1887 112.97L67.9689 118.352H72.3732Z"></path>
  <path d="M81.1377 110.918H82.7321V121.154H88.1142V122.642H81.1377V110.918Z"></path>
  <path d="M93.3721 110.918H94.9576V121.154H100.34V122.642H93.3721V110.918Z"></path>
  <path d="M109.279 110.918H110.715L115.736 122.642H113.877L112.706 119.744H107.13L105.967 122.642H104.135L109.279 110.918ZM112.124 118.352L109.94 112.97L107.658 118.352H112.124Z"></path>
  <path d="M120.872 110.918H124.995C125.625 110.899 126.254 111.004 126.844 111.226C127.283 111.398 127.677 111.666 127.998 112.01C128.275 112.31 128.475 112.673 128.58 113.067C128.707 113.43 128.781 113.81 128.8 114.195C128.802 114.568 128.736 114.938 128.606 115.287C128.474 115.631 128.28 115.947 128.034 116.221C127.786 116.511 127.488 116.753 127.153 116.934C126.782 117.134 126.374 117.257 125.955 117.295L129.284 122.642H127.302L124.316 117.472H122.555V122.642H120.872V110.918ZM122.458 116.089H124.545C124.841 116.087 125.135 116.06 125.426 116.009C125.713 115.968 125.991 115.875 126.245 115.736C126.48 115.602 126.675 115.408 126.809 115.173C126.954 114.868 127.029 114.536 127.029 114.199C127.029 113.862 126.954 113.53 126.809 113.226C126.675 112.991 126.48 112.796 126.245 112.662C125.991 112.523 125.713 112.43 125.426 112.389C125.135 112.338 124.841 112.311 124.545 112.31H122.458V116.089Z"></path>
  <path d="M136.807 112.407H133.028V110.918H142.172V112.407H138.393V122.642H136.807V112.407Z"></path>
  <path d="M149.651 110.918H151.087L156.108 122.642H154.249L153.078 119.744H147.502L146.339 122.642H144.489L149.651 110.918ZM152.496 118.352L150.312 112.97L148.092 118.352H152.496Z"></path>
  <path d="M0 83.4613H2.88924V92.1026H13.3275V83.4613H16.252V104.118H13.3275V94.6659H2.88924V104.118H0V83.4613Z"></path>
  <path d="M25.6156 104.118H22.4004L31.3588 83.4613H34.0014L42.8717 104.118H39.6037L37.5072 99.0439H27.6856L25.6156 104.118ZM28.7074 96.507H36.4326L32.5832 86.8174L28.7074 96.507Z"></path>
  <path d="M51.9 104.118H49.0107V83.4613H55.6349C56.5859 83.4589 57.5343 83.5623 58.4624 83.7696C59.2998 83.9485 60.097 84.2799 60.8144 84.7474C61.4806 85.1943 62.0254 85.7997 62.3999 86.5091C62.8053 87.3298 63.0049 88.2367 62.9813 89.1517C63.0107 89.8285 62.9016 90.5041 62.6608 91.1372C62.42 91.7703 62.0524 92.3476 61.5807 92.8338C60.5917 93.7857 59.3281 94.4021 57.9691 94.5955L63.7388 104.074H60.2154L54.9302 94.8862H51.9V104.118ZM51.9 92.5078H55.2208C55.8593 92.5105 56.4965 92.4515 57.1235 92.3317C57.6638 92.2311 58.1824 92.0374 58.6562 91.7591C59.3122 91.3209 59.7813 90.6538 59.9719 89.8883C60.1624 89.1228 60.0608 88.3137 59.6868 87.619C59.4361 87.2097 59.092 86.8656 58.6826 86.6148C58.2288 86.3482 57.7304 86.1662 57.2116 86.0775C56.6313 85.9638 56.0412 85.9077 55.4499 85.9102H51.9264L51.9 92.5078Z"></path>
  <path d="M70.4268 83.4613H77.5442C78.3297 83.4617 79.1127 83.5503 79.8785 83.7256C80.6223 83.8893 81.3298 84.1878 81.9661 84.6065C82.581 85.0207 83.0907 85.5726 83.4548 86.2184C83.8589 86.9792 84.0563 87.8327 84.0273 88.6937C84.047 89.7474 83.6804 90.772 82.9967 91.5741C82.3033 92.3694 81.3798 92.9296 80.3541 93.1773V93.2389C80.9883 93.3098 81.607 93.4823 82.1863 93.7498C82.7565 94.002 83.2714 94.3642 83.7014 94.8157C84.1188 95.2503 84.4426 95.766 84.6527 96.3308C84.8822 96.9569 84.9956 97.6195 84.9875 98.2863C85.0102 99.1524 84.8138 100.01 84.4165 100.78C84.0192 101.55 83.4339 102.207 82.7148 102.691C81.9605 103.19 81.1264 103.556 80.2484 103.774C79.2599 104.018 78.2452 104.139 77.227 104.135H70.4268V83.4613ZM73.3072 92.1731H77.0685C77.5938 92.1756 78.1175 92.1135 78.6276 91.9881C79.0954 91.8795 79.5379 91.6822 79.9313 91.4067C80.3008 91.1507 80.603 90.8092 80.8122 90.4114C81.0422 89.9655 81.1544 89.4682 81.1381 88.9667C81.1748 88.4957 81.0797 88.0238 80.8635 87.6038C80.6472 87.1838 80.3184 86.8322 79.9137 86.5884C78.8938 86.0663 77.7549 85.8203 76.6104 85.8749H73.3072V92.1731ZM73.3072 101.66H76.9276C77.5387 101.659 78.1487 101.606 78.7509 101.501C79.331 101.404 79.8907 101.211 80.407 100.929C80.8919 100.672 81.304 100.296 81.6049 99.8366C81.9295 99.308 82.0889 98.6946 82.063 98.0749C82.102 97.5628 82.0062 97.0494 81.7852 96.5858C81.5642 96.1222 81.2257 95.7245 80.8034 95.4323C79.6965 94.8279 78.4419 94.547 77.183 94.6219H73.3072V101.66Z"></path>
  <path d="M113.482 93.7587C113.502 95.2673 113.221 96.7647 112.654 98.163C112.135 99.4556 111.356 100.628 110.365 101.607C109.374 102.585 108.192 103.35 106.893 103.853C105.49 104.398 103.995 104.671 102.489 104.655C100.998 104.668 99.5179 104.396 98.1288 103.853C96.8345 103.348 95.6578 102.582 94.6715 101.603C93.6851 100.624 92.9101 99.4534 92.3944 98.163C91.31 95.3269 91.31 92.1905 92.3944 89.3544C92.9077 88.0682 93.6849 86.9039 94.6758 85.9366C95.6694 84.9808 96.8431 84.2322 98.1288 83.7344C99.5202 83.2021 100.999 82.9361 102.489 82.9505C103.993 82.9336 105.487 83.1995 106.893 83.7344C108.186 84.2297 109.366 84.9785 110.364 85.9366C111.355 86.9057 112.135 88.0694 112.654 89.3544C113.22 90.7529 113.502 92.2502 113.482 93.7587ZM110.364 93.7587C110.371 92.6712 110.183 91.5913 109.809 90.57C109.46 89.5952 108.924 88.6977 108.232 87.9274C107.542 87.1749 106.702 86.5748 105.766 86.1656C104.741 85.7356 103.64 85.5141 102.529 85.5141C101.417 85.5141 100.317 85.7356 99.2915 86.1656C98.361 86.5751 97.5268 87.1753 96.8427 87.9274C96.1624 88.703 95.6336 89.5994 95.2836 90.57C94.9101 91.5913 94.7222 92.6712 94.7287 93.7587C94.7208 94.8635 94.9086 95.961 95.2836 97.0003C95.6288 97.977 96.1648 98.8752 96.8604 99.6429C97.5437 100.396 98.3781 100.996 99.3092 101.405C100.319 101.846 101.413 102.066 102.516 102.048C103.629 102.063 104.734 101.844 105.757 101.405C106.699 101.001 107.543 100.4 108.232 99.6429C108.928 98.8752 109.464 97.977 109.809 97.0003C110.184 95.961 110.372 94.8635 110.364 93.7587"></path>
  <path d="M123.814 104.118H120.925V83.4614H127.549C128.5 83.4579 129.448 83.5614 130.376 83.7697C131.214 83.9469 132.012 84.2785 132.728 84.7474C133.395 85.1943 133.939 85.7997 134.314 86.5092C134.722 87.329 134.925 88.236 134.904 89.1517C134.934 89.8285 134.825 90.5041 134.584 91.1372C134.343 91.7704 133.975 92.3477 133.504 92.8338C132.512 93.7873 131.245 94.4038 129.883 94.5955L135.662 104.074H132.138L126.853 94.8862H123.761L123.814 104.118ZM123.814 92.5078H127.144C127.779 92.5106 128.413 92.4516 129.038 92.3317C129.578 92.2311 130.096 92.0374 130.57 91.7591C130.995 91.5158 131.35 91.1669 131.601 90.7461C131.85 90.2625 131.98 89.7265 131.98 89.1826C131.98 88.6387 131.85 88.1027 131.601 87.619C131.345 87.2014 130.988 86.8558 130.561 86.6149C130.108 86.347 129.61 86.1649 129.09 86.0775C128.51 85.9634 127.92 85.9073 127.329 85.9102H123.805L123.814 92.5078Z"></path>
  <path d="M161.656 104.118H158.855V86.9055L154.944 90.1735L153.279 88.218L159.146 83.4613H161.656V104.118Z"></path>
  <path d="M186.514 86.0335L178.225 104.118H174.992L183.589 85.9718H173.354V83.4613H186.514V86.0335Z"></path>
  <path d="M203.375 104.118H200.574V86.9055L196.663 90.1735L194.998 88.218L200.865 83.4613H203.375V104.118Z"></path>
  <path d="M168.44 115.956C168.44 116.142 168.403 116.326 168.332 116.498C168.26 116.669 168.156 116.825 168.024 116.956C167.892 117.087 167.736 117.191 167.564 117.261C167.392 117.331 167.207 117.367 167.022 117.366H161.393C161.019 117.366 160.661 117.217 160.396 116.953C160.132 116.689 159.983 116.33 159.983 115.956C159.983 115.583 160.132 115.224 160.396 114.96C160.661 114.696 161.019 114.547 161.393 114.547H167.039C167.411 114.549 167.768 114.699 168.03 114.963C168.292 115.227 168.44 115.584 168.44 115.956"></path>
  <path d="M45.4349 115.957C45.436 116.142 45.4004 116.326 45.33 116.497C45.2595 116.669 45.1558 116.825 45.0247 116.956C44.8936 117.087 44.7377 117.191 44.5662 117.261C44.3947 117.331 44.2109 117.367 44.0255 117.366H38.3703C37.9965 117.366 37.638 117.217 37.3737 116.953C37.1094 116.689 36.9609 116.33 36.9609 115.957C36.9609 115.583 37.1094 115.224 37.3737 114.96C37.638 114.696 37.9965 114.547 38.3703 114.547H44.0255C44.2109 114.546 44.3947 114.582 44.5662 114.652C44.7377 114.722 44.8936 114.826 45.0247 114.957C45.1558 115.088 45.2595 115.244 45.33 115.416C45.4004 115.587 45.436 115.771 45.4349 115.957"></path>
  <path d="M110.376 70.2241C109.746 70.2222 109.132 70.0268 108.617 69.6644C108.102 69.3021 107.71 68.7902 107.496 68.1981L94.5204 32.0386C94.3703 31.6577 94.2983 31.2504 94.3086 30.8411C94.3189 30.4318 94.4113 30.0287 94.5804 29.6558C94.7495 29.2829 94.9917 28.9478 95.2928 28.6703C95.5939 28.3928 95.9477 28.1787 96.3331 28.0406C96.7186 27.9024 97.1278 27.8432 97.5366 27.8663C97.9454 27.8893 98.3454 27.9943 98.7128 28.175C99.0803 28.3556 99.4077 28.6083 99.6756 28.9179C99.9435 29.2275 100.146 29.5878 100.272 29.9774L113.274 66.1369C113.41 66.5151 113.47 66.9164 113.45 67.3178C113.43 67.7192 113.332 68.1127 113.16 68.476C112.988 68.8393 112.747 69.1651 112.449 69.4348C112.151 69.7046 111.803 69.9129 111.424 70.048C111.093 70.1627 110.745 70.2222 110.394 70.2241"></path>
  <path d="M84.3906 70.2241C84.0398 70.2214 83.6917 70.1619 83.36 70.0479C82.5986 69.7715 81.9777 69.205 81.6327 68.4721C81.2878 67.7393 81.2469 66.8998 81.5189 66.1369L104.571 2.01867C104.847 1.2559 105.414 0.633883 106.149 0.289453C106.883 -0.0549772 107.724 -0.0936052 108.487 0.182067C109.249 0.457738 109.871 1.02513 110.216 1.75942C110.56 2.49371 110.599 3.33474 110.323 4.09751L87.271 68.1981C87.0584 68.7916 86.6675 69.3049 86.1519 69.6676C85.6362 70.0303 85.021 70.2247 84.3906 70.2241Z"></path>
  <path d="M73.5649 69.3873C73.2137 69.3896 72.8648 69.33 72.5343 69.2111C72.1558 69.0761 71.8077 68.8677 71.5098 68.598C71.2119 68.3282 70.9702 68.0024 70.7984 67.6392C70.6265 67.2759 70.528 66.8823 70.5085 66.481C70.489 66.0796 70.5487 65.6783 70.6844 65.3001L89.5438 11.7434C89.845 11.0217 90.4115 10.4428 91.1265 10.126C91.8416 9.80925 92.6509 9.77862 93.3879 10.0405C94.1249 10.3023 94.7334 10.8367 95.0883 11.5336C95.4433 12.2305 95.5175 13.037 95.2958 13.787L76.4365 67.3613C76.2255 67.9541 75.8363 68.4671 75.3221 68.8299C74.808 69.1926 74.1941 69.3873 73.5649 69.3873Z"></path>
  <path d="M130.495 70.2241C129.865 70.2222 129.251 70.0268 128.736 69.6645C128.221 69.3021 127.83 68.7903 127.615 68.1982L104.571 4.09754C104.434 3.71964 104.373 3.31846 104.392 2.91695C104.41 2.51545 104.508 2.12151 104.678 1.75769C104.849 1.39387 105.09 1.0673 105.387 0.79669C105.684 0.526078 106.032 0.31673 106.41 0.180631C106.788 0.0445332 107.19 -0.0156423 107.591 0.00354686C107.993 0.022736 108.386 0.120914 108.75 0.292462C109.113 0.464009 109.439 0.705557 109.709 1.00328C109.979 1.301 110.188 1.64905 110.323 2.02751L133.376 66.1369C133.647 66.9009 133.605 67.7415 133.258 68.4745C132.912 69.2075 132.289 69.7733 131.526 70.048C131.194 70.1627 130.846 70.2222 130.495 70.2241"></path>
</svg>